<svg xmlns="http://www.w3.org/2000/svg" fill='currentColor' viewBox="0 75 725.36 180"><path  d="M688.94,124.13c-3.18-9.79-13.53-16-23.8-16.73s-20.35,3.21-29.23,8.43c-6.95,4.08-13.69,10.25-17.44,17.45a22.56,22.56,0,0,0-2.67,11.9c.3,3.85,3.31,7.73,3,11.51a7.67,7.67,0,0,1-2.39,4.51,14.65,14.65,0,0,1-24.54-14.35c1.38-4.75,5.19-9,2.54-14.37a10.41,10.41,0,0,0-14-4.46c-10.85,5.46-11.52,17.33-13.23,27.82-1.46,8.93-5.28,19-14.35,21.14a9.49,9.49,0,0,1-3.14.23c-8.46-.86-9.63-11.56-5.78-18.05,3.47-5.84,9.47-9.71,13.75-15s6.47-13.67,1.72-18.54c-6.88-7-18.9,1.05-22.73,10.11-3.26,7.72-7.26,24.93-17.34,27.1-6,2.5-9-7.74-10.2-10.31-10.26-21.66-36.24-26.08-54.11-9.5a8.78,8.78,0,0,0-2.63,4.25c-1.73,7,6.38,10.13,12.29,8.79,6.81-1.54,12.66-6.6,20.27-4.65a7.08,7.08,0,0,1,5.46,7.27c-.44,5.36-7,6.88-11.85,5.58-4.49-1.21-8.63-3.94-13.29-4.08-7.12-.22-10.55.65-18.65-4.86-5.47-3.73-6.48-12.71-5-16.42,3.2-8-.22-15.24-8.69-13.4a11.58,11.58,0,0,0-6.2,3.71c-11.78,13.46-17.31,27.35-23.64,44-1.63,4.29-3.83,9.07-8.68,9.86a8.88,8.88,0,0,1-9.69-6.21c-2.56-7.76,2.09-14.6,7.12-20,4.83-5.22,10.44-6.46,11.92-13.74a8.61,8.61,0,0,0-2.19-7.89c-5.67-5.58-15,2-18.27,9.38-3.85,8.62-6.07,14.32-10.68,22.57-3.54,6.32-8.75,12.86-15.6,14.62-2,.5-3.51.25-5.35-2-2.36-2.87,1.42-7.27,1.42-7.27.82-1.26,1.84-2.48,2.52-3.5s1.59-2.26,2.2-3.09c3.9-5.39,8.28-8.36,9.12-15.76,1.22-10.81-3.88-23.27-16-25a12.86,12.86,0,0,0-14.33,9.23c-1.77,6.7,2.95,9.2,6.4,15,3.2,5.43,5.16,13.13.59,17.47-6.48,6.13-17.16-2.1-19.27-10.77-2.51-10.32,0-22.4-9.63-29.67a21.92,21.92,0,0,0-13.67-4.12c-10,.18-18.71,5.32-27.09,10.34l-31.47,18.88c.38-8.86,6.23-16.41,11.88-23.24s11.63-14.21,12.39-23c1-11-8.51-20.09-18.61-14.9-10.38,5.32-16.2,14.69-18.53,26.06-2.48,12-1.7,24.7-5.31,36.46-2.61,8.49-8.75,17.18-18.32,16.57a8,8,0,0,1-7.61-9c.8-5.57,5.82-6.48,9.09-9.42,2.57-2.31,3.44-7.43-.43-8.34a4.55,4.55,0,0,0-3.91,1l-21.14,17.81a5.31,5.31,0,0,1-7.82-.88c-1.57-2.26-.22-4,.51-5.86,3.1-7.93-6.57-16.05-15-15-6,.78-13.83,6.18-18.35,10.43a7.67,7.67,0,0,1-11.3-.82c-7.85-10-9.26-25.91-21.1-30.22-11.42-4.15-23.9,3.5-31.7,12.83-4.54,5.42-8.36,11.8-9,18.84s2.51,14.77,8.89,17.83c5.06,2.44,11.25,1.67,16.21,4.36a8,8,0,0,1,3.08,10.73c-5.52,10.21-14,2.2-15.81,0-13-16-34.59-22.68-45.81-19.24-6.65,2-5.64,11.84,1.28,12.61,6.34.7,14.39-1.11,20.52,1.33,9.32,3.71,11.48,16,18.7,22.95A20.21,20.21,0,0,0,109,183.19c.39-2.31,4.33-1.44,5,.78s-.26,4.62-.21,7c.19,8.34,13,10.34,19.45,5.08s9-13.89,13.66-20.77,14.68-12.1,21.13-6.81c5.38,4.4,4.49,12.91,7.89,19,4.36,7.79,16.48,8.5,22.85,2.82a4.94,4.94,0,0,1,7.46.87c2.47,3.77,4.52,7.93,8.73,8.79,3.3.68,6.29-1.85,7.43-4.93a4.78,4.78,0,0,1,6.83-2.5c13.78,7.94,25.61,19.94,41.06,23.62,15.74,3.76,33.49-2.6,43-15.74a13.67,13.67,0,0,0,2.28-4.83c2.5-10.84-11.18-15.76-20.63-12.93-8.68,2.6-16.16,8.86-25.14,10.08-5.15.71-11-.54-13.22-6.33A12.27,12.27,0,0,1,258.38,175c4.45-6.31,12.18-8.34,19.52-9.52a143,143,0,0,1,27-1.78c11.6.34,26.26,5.31,26.48,16.92.2,10.91-11.61,18.43-6,27.77,4.57,7.57,16.27,4.44,23.58-.54,9-6.12,15.84-12.09,21.89-20a4.22,4.22,0,0,1,6.9.34c4.27,6.71,6.35,9.24,12,11.92,11.7,5.56,21-4.12,24.8-16.49,3.68-11.87,4.79-25,13.71-31.26a7.62,7.62,0,0,1,2.41-1.18c6.25-1.58,11.57,6.19,10.57,11.93-1.07,6.13-5.44,11-9,16.12s-6.58,11.51-4.46,17.35c3.54,9.74,17.1,9.84,27.32,8.14,6.6-1.1,15.64-6.27,8.86-12.83a6.73,6.73,0,0,0-8-.76c-4.06,2.26-14.34,2-13.78-4.24a5.93,5.93,0,0,1,1.55-3.37c5.4-6.16,12.77-11.8,21.07-11.73,7.73.07,15.56,7.05,14.09,14.64-1.17,6-7.49,12.08-3.3,17.21a7.3,7.3,0,0,0,10.9.3c9-8.86,10.57-26.79,20.79-33.68a2.68,2.68,0,0,1,4.15,2.34,23.84,23.84,0,0,0,32.19,23,2.19,2.19,0,0,1,2.68,3c-4.29,9-9.11,17.75-16.28,24.55-8.71,8.27-21.84,13-33,8.62-3.91-1.55-7.69-4.19-12.18-2.11-5.36,2.5-6.87,8.91-3.69,13.9,5.73,9,16.92,8.21,26,5.37a85.27,85.27,0,0,0,26.74-14.18c20.31-15.74,34.83-39.88,44.13-64.24a9.7,9.7,0,0,1,2.58-3.87c6.06-5.32,13.1,2.19,20.09,4.25,12.49,3.69,29-9.84,37.3,0a11,11,0,0,1-.32,14.15c-5.86,6.83-15.61,6.17-22.78,2.15-4.87-2.74-8.87-6.84-13.76-9.55A17.75,17.75,0,0,0,590,175.34a3.31,3.31,0,0,0-2,5.35c10.8,13.25,22.6,26.44,38.54,32.29,17.27,6.33,40.6,0,46.07-17.57,4.64-14.91-6.42-31.78-21.37-36.31-6.65-2-13.91-2.09-19.6-6.93a10.52,10.52,0,0,1-3.85-8c.06-9.95,14.13-11.57,22.6-7.2,8.22,4.25,15.93,11.56,25.14,10.54C685.73,146.4,692.12,133.93,688.94,124.13ZM127.41,161.32a2,2,0,0,1-.18.36c-2.45,4.23-7.48,6.46-11.82,8.18-1.7.68-4.38,1.95-6.28,1.62-2.9-.5-5.6-3.95-8.58-5-2.63-1-5.58-1.13-8-2.62a9.55,9.55,0,0,1-4-5.83c-1.17-4.77,1.1-17,8.28-14.16,5.26,2.11,7.73,8.78,12.46,11.89a23.5,23.5,0,0,0,16.57,3.65,1.91,1.91,0,0,1,1.38.12C127.79,159.9,127.69,160.67,127.41,161.32Zm181.92-7.92a2.86,2.86,0,0,1-2.6.95,101.45,101.45,0,0,0-23-.64,135,135,0,0,0-16.84,2.59,2.88,2.88,0,0,1-3.07-4.3,26.68,26.68,0,0,1,13.25-10.67c6.37-2.49,13.76-3.44,20.45-1.73C302.14,140.78,314.55,147.25,309.33,153.4Z"/><path d="M171.69,128.38c-.06,4.63,5,8.85,9.36,8.78,4.75-.08,9.61-5.17,9.37-9.3-.29-5-8.22-9.84-13.86-6.71C174.64,122.21,171.73,124.89,171.69,128.38Z"/></svg>
