<svg id="Ebene_4" data-name="Ebene 4" xmlns="http://www.w3.org/2000/svg" viewBox="0 0 725.36 325.53"><defs><style>.cls-1{fill:#1d1d1b;}</style></defs><path class="cls-1" d="M666,120.11a25.33,25.33,0,0,0-22-18.35c-9.51-.77-18.85,3.52-27.07,9.24a47.59,47.59,0,0,0-16.16,19.15,28.44,28.44,0,0,0-2.47,13c.28,4.22,3.06,8.48,2.75,12.62a9.08,9.08,0,0,1-2.22,4.95,12.39,12.39,0,0,1-16.55,2.64c-5.18-3.59-7.86-11.56-6.18-18.37,1.28-5.21,4.81-9.83,2.35-15.76-2.34-5.63-8.26-7.71-13-4.9-10,6-10.67,19-12.25,30.51-1.35,9.8-4.89,20.89-13.29,23.19a7.58,7.58,0,0,1-2.92.25c-7.83-.94-8.91-12.68-5.35-19.79,3.22-6.41,8.77-10.66,12.74-16.45s6-15,1.59-20.33c-6.37-7.71-17.5,1.15-21.05,11.09-3,8.47-6.73,27.34-16.06,29.72-5.57,2.74-8.33-8.49-9.45-11.3-9.51-23.76-33.57-28.61-50.12-10.43a10.1,10.1,0,0,0-2.44,4.67c-1.6,7.66,5.91,11.11,11.39,9.64,6.3-1.69,11.72-7.25,18.78-5.1a7.69,7.69,0,0,1,5.05,8c-.41,5.88-6.51,7.54-11,6.12-4.17-1.32-8-4.32-12.31-4.48-6.6-.24-9.78.72-17.28-5.33-5.07-4.08-6-13.94-4.64-18,3-8.82-.21-16.72-8-14.7a10.53,10.53,0,0,0-5.74,4.07c-10.91,14.76-16,30-21.91,48.28-1.51,4.7-3.54,9.94-8,10.81-4,.77-7.73-2.29-9-6.81-2.37-8.52,1.94-16,6.6-22,4.47-5.73,9.67-7.09,11-15.07a10.69,10.69,0,0,0-2-8.65c-5.25-6.12-13.87,2.19-16.92,10.28-3.57,9.46-5.63,15.71-9.9,24.76-3.27,6.93-8.1,14.1-14.45,16-1.81.55-3.25.27-5-2.22-2.19-3.15,1.31-8,1.31-8,.76-1.39,1.71-2.73,2.33-3.85.71-1.27,1.48-2.47,2-3.39,3.61-5.91,7.67-9.16,8.45-17.27,1.13-11.86-3.6-25.53-14.82-27.41-5.94-1-11.75,3.25-13.28,10.12-1.63,7.35,2.74,10.08,5.93,16.48,3,6,4.79,14.4.55,19.16-6,6.73-15.89-2.3-17.85-11.81-2.32-11.32,0-24.57-8.92-32.54a18.13,18.13,0,0,0-12.66-4.52c-9.3.2-17.33,5.83-25.09,11.34l-29.16,20.7c.36-9.71,5.78-18,11-25.48s10.77-15.58,11.48-25.27c.89-12.09-7.89-22-17.24-16.34-9.62,5.84-15,16.11-17.17,28.58-2.29,13.21-1.57,27.09-4.92,40-2.41,9.3-8.1,18.84-17,18.17-4.41-.34-7.68-4.74-7.05-9.92.74-6.1,5.39-7.1,8.42-10.33,2.37-2.53,3.19-8.15-.4-9.14a3.73,3.73,0,0,0-3.62,1.13c-3.55,3.53-14.29,14.25-19.58,19.53a4.45,4.45,0,0,1-7.24-1c-1.46-2.47-.21-4.39.46-6.42,2.87-8.7-6.08-17.6-13.91-16.41-5.59.84-12.81,6.77-17,11.43-3,3.39-7.9,3-10.48-.9-7.26-11-8.57-28.42-19.53-33.14-10.59-4.56-22.14,3.84-29.37,14.06-4.2,6-7.75,13-8.36,20.67s2.33,16.2,8.24,19.56c4.69,2.67,10.42,1.82,15,4.77,3.52,2.26,4.76,7.61,2.86,11.78-5.12,11.19-13,2.4-14.64,0-12-17.6-32.05-24.87-42.44-21.1-6.16,2.24-5.22,13,1.18,13.83,5.88.77,13.33-1.22,19,1.45,8.63,4.07,10.64,17.54,17.33,25.18,5.66,6.46,14.92,8,21.84,3.57s11-14.37,9.56-23.52c.37-2.53,4-1.58,4.68.86s-.25,5.06-.2,7.63c.17,9.14,12,11.33,18,5.56s8.3-15.23,12.66-22.77,13.6-13.27,19.57-7.48c5,4.84,4.16,14.17,7.31,20.83,4,8.53,15.26,9.32,21.16,3.09a4.16,4.16,0,0,1,6.91,1c2.29,4.13,4.19,8.69,8.09,9.64,3.05.75,5.83-2,6.89-5.4.94-3,4-4.35,6.32-2.74,12.76,8.7,23.73,21.86,38,25.9,14.58,4.12,31-2.85,39.87-17.27a16.12,16.12,0,0,0,2.11-5.29c2.31-11.89-10.35-17.29-19.1-14.19-8.05,2.85-15,9.72-23.29,11.06-4.77.78-10.2-.59-12.24-6.94a15.5,15.5,0,0,1,1.56-12.45c4.11-6.92,11.28-9.14,18.08-10.44a112.5,112.5,0,0,1,25-2c10.75.37,24.33,5.82,24.53,18.55.18,12-10.75,20.22-5.52,30.46,4.24,8.3,15.07,4.87,21.84-.59,8.3-6.71,14.67-13.26,20.28-21.93,1.64-2.54,4.93-2.32,6.39.37,4,7.37,5.88,10.14,11.12,13.09,10.83,6.08,19.42-4.53,23-18.09,3.4-13,4.43-27.44,12.7-34.28a6.4,6.4,0,0,1,2.23-1.3c5.78-1.73,10.71,6.79,9.79,13.09-1,6.72-5,12.1-8.36,17.68s-6.09,12.62-4.12,19c3.27,10.68,15.83,10.79,25.3,8.93,6.12-1.21,14.49-6.88,8.2-14.08a5.49,5.49,0,0,0-7.4-.83c-3.77,2.49-13.29,2.16-12.77-4.65a7.19,7.19,0,0,1,1.43-3.7c5-6.75,11.84-12.93,19.52-12.85,7.16.07,14.42,7.72,13.06,16-1.09,6.63-6.94,13.26-3.06,18.88,2.58,3.75,7.17,3.72,10.09.33,8.36-9.72,9.8-29.38,19.26-36.94,1.67-1.33,3.88.19,3.85,2.57-.11,8.78,3.61,17.63,9.81,22.54a19.85,19.85,0,0,0,20,2.74c1.69-.72,3.26,1.41,2.48,3.33-4,9.83-8.43,19.46-15.08,26.92-8.07,9.06-20.22,14.3-30.56,9.45-3.62-1.7-7.13-4.6-11.28-2.31-5,2.74-6.36,9.77-3.43,15.24,5.32,9.88,15.68,9,24.07,5.89a75.74,75.74,0,0,0,24.78-15.56c18.81-17.25,32.26-43.73,40.87-70.44a11,11,0,0,1,2.39-4.25c5.61-5.83,12.13,2.4,18.61,4.66,11.57,4,26.86-10.78,34.55,0,3.19,4.46,2.92,11.08-.29,15.52-5.44,7.49-14.46,6.76-21.1,2.35-4.52-3-8.23-7.49-12.75-10.47-3.08-2-6.87-3.21-10.26-2.55-2.32.45-3.38,3.7-1.89,5.86,10,14.54,20.94,29,35.7,35.41,16,7,37.61,0,42.67-19.26,4.3-16.36-1.7-33.75-19.79-39.83-6.2-2.08-12.89-2.29-18.16-7.6a12.4,12.4,0,0,1-3.56-8.74c.06-10.92,13.09-12.7,20.93-7.9,7.62,4.66,14.76,12.67,23.29,11.56C663,144.53,669,130.85,666,120.11ZM145.87,160.89c-.05.14-.1.27-.16.4-2.27,4.63-6.94,7.08-11,9-1.57.74-4.05,2.13-5.81,1.78-2.69-.55-5.19-4.34-8-5.51-2.44-1-5.17-1.24-7.37-2.88a10.68,10.68,0,0,1-3.74-6.39c-1.08-5.22,1-18.67,7.67-15.52,4.88,2.31,7.16,9.62,11.54,13a19.13,19.13,0,0,0,15.35,4,1.5,1.5,0,0,1,1.28.13C146.22,159.34,146.13,160.18,145.87,160.89Zm168.51-8.68a2.45,2.45,0,0,1-2.41,1,83.7,83.7,0,0,0-10.53-1.07,79.8,79.8,0,0,0-10.75.37,105.54,105.54,0,0,0-15.59,2.84c-2.27.58-4.07-2.38-2.84-4.72A26,26,0,0,1,284.52,139c5.91-2.73,12.76-3.78,19-1.9C307.72,138.36,319.22,145.46,314.38,152.21Z"/><path class="cls-1" d="M186.88,124.77c0,5.08,4.61,9.71,8.68,9.62,4.39-.08,8.9-5.66,8.68-10.19-.27-5.51-7.62-10.8-12.84-7.36A10.23,10.23,0,0,0,186.88,124.77Z"/></svg>